<!-- highstreet technologies GmbH colour scheme 
	Grey	#565656
	LBlue #36A9E1
	DBlue #246DA2
	Green #003F2C / #006C4B
	Yellw #C8D400
	Red 	#D81036
-->


<svg xmlns="http://www.w3.org/2000/svg" xmlns:xlink="http://www.w3.org/1999/xlink" viewBox="0 0 142 140" >
<g stroke="none" stroke-width="1" fill="none" fill-rule="evenodd" transform="scale(10,10)">


	<path fill="#565656" d="M7.887,9.025 C7.799,8.449 7.569,7.92 7.229,7.475 L7.995,6.71 L7.307,6.023 L6.536,6.794 C6.093,6.467 5.566,6.245 4.994,6.161 L4.994,5.066 L4.021,5.066 L4.021,6.155 C3.444,6.232 2.913,6.452 2.461,6.777 L1.709,6.024 L1.021,6.712 L1.761,7.452 C1.411,7.901 1.175,8.437 1.087,9.024 L0.062,9.024 L0.062,9.025 L0.062,9.998 L1.08,9.998 C1.162,10.589 1.396,11.132 1.744,11.587 L1.02,12.31 L1.708,12.997 L2.437,12.268 C2.892,12.604 3.432,12.83 4.02,12.91 L4.02,13.958 L4.993,13.958 L4.993,12.904 C5.576,12.818 6.11,12.589 6.56,12.252 L7.306,12.999 L7.994,12.311 L7.248,11.564 C7.586,11.115 7.812,10.581 7.893,10 L8.952,10 L8.952,9.998 L8.952,9.026 L7.887,9.026 L7.887,9.025 Z M4.496,11.295 C3.512,11.295 2.715,10.497 2.715,9.512 C2.715,8.528 3.512,7.73 4.496,7.73 C5.481,7.73 6.28,8.528 6.28,9.512 C6.28,10.497 5.481,11.295 4.496,11.295 L4.496,11.295 Z" ></path>

	<path fill="#C8D400" d="m 12.231 4.17 l 1.09 -0.281 l -0.252 -0.979 l -1.091 0.282 c -0.118 -0.24 -0.265 -0.47 -0.461 -0.672 c -0.192 -0.196 -0.415 -0.344 -0.647 -0.464 l 0.301 -1.079 l -0.973 -0.271 l -0.299 1.072 c -0.541 -0.043 -1.091 0.078 -1.566 0.382 l -0.76 -0.776 l -0.721 0.707 l 0.756 0.77 c -0.326 0.47 -0.469 1.024 -0.441 1.575 l -1.04 0.268 l 0.252 0.977 l 1.038 -0.268 c 0.117 0.243 0.266 0.475 0.465 0.678 c 0.203 0.208 0.439 0.362 0.686 0.485 l -0.289 1.039 l 0.971 0.271 l 0.293 -1.048 c 0.542 0.033 1.092 -0.1 1.563 -0.415 l 0.771 0.786 l 0.72 -0.707 l -0.776 -0.791 c 0.307 -0.465 0.439 -1.006 0.41 -1.541 l 0 0 z m -2.517 1.617 c -0.823 0 -1.491 -0.669 -1.491 -1.493 c 0 -0.822 0.668 -1.489 1.491 -1.489 c 0.822 0 1.49 0.667 1.49 1.489 c 0 0.824 -0.668 1.493 -1.49 1.493 l 0 0 z" ></path>

</g>
</svg> 