<!-- highstreet technologies GmbH colour scheme 
	Grey	#565656
	LBlue #36A9E1
	DBlue #246DA2
	Green #003F2C / #006C4B
	Yellw #C8D400
	Red 	#D81036
-->

<svg version="1.0" xmlns="http://www.w3.org/2000/svg" viewBox="0 0 684.000000 684.000000">

<g transform="translate(0.000000,684.000000) scale(0.100000,-0.100000)">

<path fill="#565656" d="M3044 6693 c-12 -2 -33 -17 -48 -32 -35 -37 -55 -136 -96 -476 -17
-142 -32 -260 -33 -260 -1 -1 -60 -19 -132 -40 -243 -71 -406 -139 -600 -250
-99 -57 -120 -66 -138 -57 -12 6 -124 91 -249 189 -124 98 -252 193 -283 212
-57 34 -57 34 -89 17 -81 -43 -421 -374 -513 -500 -24 -32 -43 -67 -43 -78 0
-36 98 -173 337 -472 57 -70 103 -132 103 -138 0 -5 -17 -35 -39 -66 -98 -144
-275 -566 -301 -715 -14 -78 26 -65 -335 -112 -384 -51 -423 -62 -447 -125 -5
-14 -9 -179 -9 -376 0 -414 0 -416 78 -433 43 -10 213 -35 518 -77 183 -25
167 -12 221 -182 75 -238 160 -433 278 -637 l35 -61 -175 -219 c-206 -259
-274 -357 -274 -393 0 -22 50 -76 258 -282 142 -141 275 -269 295 -284 l36
-28 38 23 c62 38 177 124 380 286 l193 153 92 -57 c168 -102 383 -193 633
-269 66 -19 123 -39 127 -43 9 -8 19 -76 53 -361 14 -113 33 -243 42 -289 23
-119 0 -114 455 -113 237 0 373 4 386 11 44 23 61 101 106 485 l32 269 149 46
c227 71 395 139 395 160 0 5 -125 127 -277 272 -194 186 -283 263 -297 262
-12 -1 -75 -11 -141 -23 -318 -56 -700 -29 -973 69 -278 101 -476 226 -685
435 -275 275 -445 609 -504 988 -23 152 -23 432 1 586 60 394 215 705 493 984
166 169 314 278 498 368 292 143 539 191 912 176 194 -8 297 -24 446 -72 485
-156 879 -500 1098 -959 134 -278 196 -617 170 -918 -6 -73 -21 -186 -33 -251
l-22 -119 274 -268 c268 -261 275 -268 292 -248 23 27 88 198 133 351 31 104
41 127 59 132 11 3 131 19 266 36 402 50 463 65 477 118 5 15 8 192 8 393 0
353 -1 368 -20 389 -36 40 -79 49 -469 100 -132 18 -249 36 -261 40 -18 7 -29
33 -59 137 -66 223 -139 392 -292 669 l-28 51 126 159 c193 246 265 343 294
399 l27 52 -31 45 c-101 147 -505 538 -555 538 -30 0 -234 -146 -506 -362
l-104 -82 -51 28 c-244 136 -390 201 -606 271 -63 21 -136 46 -161 57 l-46 19
-36 297 c-50 403 -58 430 -136 452 -34 9 -671 12 -717 3z"/>

<path fill="#006C4B" d="M3080 4653 c-77 -8 -195 -35 -232 -54 -21 -10 -45 -30 -54 -44 -15
-23 -15 -27 0 -49 22 -35 111 -101 277 -207 247 -158 343 -239 384 -326 35
-74 -5 -237 -108 -438 -40 -77 -68 -116 -122 -170 -77 -77 -194 -145 -249
-145 -39 0 -127 48 -339 184 -194 124 -291 176 -330 176 -60 0 -105 -86 -86
-167 28 -127 262 -492 423 -662 101 -106 236 -191 333 -211 27 -5 138 -14 248
-20 372 -20 506 -66 689 -240 87 -83 629 -652 1291 -1355 181 -192 439 -465
573 -607 244 -255 245 -256 281 -251 220 32 406 139 512 295 50 73 98 174 106
222 5 32 0 42 -53 108 -113 140 -296 342 -1073 1183 -513 554 -980 1066 -1074
1178 -117 137 -174 252 -196 394 -6 39 -15 171 -21 294 -6 123 -15 257 -20
297 -28 207 -209 414 -464 532 -97 45 -172 66 -286 80 -78 9 -330 11 -410 3z"/>
</g>
</svg>
