<!-- highstreet technologies GmbH colour scheme 
	Grey	#565656
	LBlue #36A9E1
	DBlue #246DA2
	Green #003F2C / #006C4B
	Yellw #C8D400
	Red 	#D81036
-->

<svg xmlns="http://www.w3.org/2000/svg" viewBox="0 0 24 24">

<path fill="#36A9E1" d="M 13 13 V 17.5 A 1 1 0 0 1 11 17.5 V 13 A 1 1 0 0 1 13 13 Z "/>

<path fill="#36A9E1" d="M 12 11 A 1 1 0 1 0 11 10 A 1 1 0 0 0 12 11 Z "/>

<path fill="#565656" d="M 1.125 20.485 A 1 1 0 0 1 1.152 19.47 L 11.152 3.47 A 1.039 1.039 0 0 1 12.852 3.47 L 22.852 19.47 A 1 1 0 0 1 22 21 H 2 A 1 1 0 0 1 1.125 20.485 Z M 3.8 19 H 20.2 L 12 5.887 Z"/>

</svg>