<!-- highstreet technologies GmbH colour scheme 
	Grey	#565656
	LBlue #36A9E1
	DBlue #246DA2
	Green #003F2C / #006C4B
	Yellw #C8D400
	Red 	#D81036
-->

<svg xmlns="http://www.w3.org/2000/svg" xmlns:xlink="http://www.w3.org/1999/xlink" viewBox="0 0 460.298 460.297" style="enable-background:new 0 0 460.298 460.297;"
	 xml:space="preserve">
<g>
	<g>
		<path fill="#565656" d="M230.149,120.939L65.986,256.274c0,0.191-0.048,0.472-0.144,0.855c-0.094,0.38-0.144,0.656-0.144,0.852v137.041
			c0,4.948,1.809,9.236,5.426,12.847c3.616,3.613,7.898,5.431,12.847,5.431h109.63V303.664h73.097v109.64h109.629
			c4.948,0,9.236-1.814,12.847-5.435c3.617-3.607,5.432-7.898,5.432-12.847V257.981c0-0.76-0.104-1.334-0.288-1.707L230.149,120.939
			z"/>
		<path fill="#565656" d="M457.122,225.438L394.6,173.476V56.989c0-2.663-0.856-4.853-2.574-6.567c-1.704-1.712-3.894-2.568-6.563-2.568h-54.816
			c-2.666,0-4.855,0.856-6.57,2.568c-1.711,1.714-2.566,3.905-2.566,6.567v55.673l-69.662-58.245
			c-6.084-4.949-13.318-7.423-21.694-7.423c-8.375,0-15.608,2.474-21.698,7.423L3.172,225.438c-1.903,1.52-2.946,3.566-3.14,6.136
			c-0.193,2.568,0.472,4.811,1.997,6.713l17.701,21.128c1.525,1.712,3.521,2.759,5.996,3.142c2.285,0.192,4.57-0.476,6.855-1.998
			L230.149,95.817l197.57,164.741c1.526,1.328,3.521,1.991,5.996,1.991h0.858c2.471-0.376,4.463-1.43,5.996-3.138l17.703-21.125
			c1.522-1.906,2.189-4.145,1.991-6.716C460.068,229.007,459.021,226.961,457.122,225.438z"/>

<path fill="#246DA2" d="M 457.122 225.438 L 251.849 54.417 L 251.849 54.417 C 245.765 49.468 238.531 46.994 230.155 46.994 C 221.78 46.994 214.547 49.468 208.457 54.417 L 3.172 225.438 C 1.269 226.958 0.226 229.004 0.032 231.574 C -0.161 234.142 0.504 236.385 2.029 238.287 L 19.73 259.415 C 21.255 261.127 23.251 262.174 25.726 262.557 C 28.011 262.749 30.296 262.081 32.581 260.559 L 230.149 95.817 L 427.719 260.558 C 429.245 261.886 431.24 262.549 433.715 262.549 H 434.573 C 437.044 262.173 439.036 261.119 440.569 259.411 L 458.272 238.286 C 459.794 236.38 460.461 234.141 460.263 231.57 C 460.068 229.007 459.021 226.961 457.122 225.438 Z"/>
	</g>
</g>
</svg>
