<!-- highstreet technologies GmbH colour scheme 
	Grey	#565656
	LBlue #36A9E1
	DBlue #246DA2
	Green #003F2C / #006C4B
	Yellw #C8D400
	Red 	#D81036
-->

<svg xmlns="http://www.w3.org/2000/svg" viewBox="0 0 795.000000 139.000000">

<g transform="translate(0.000000,139.000000) scale(0.100000,-0.100000)">

<path fill="#565656" d="M355 1163 c-38 -2 -75 -9 -82 -15 -10 -8 -13 -53 -13 -175 0 -175 -9
-215 -50 -226 -17 -4 -20 -13 -20 -59 0 -48 3 -56 32 -80 l33 -27 3 -190 c4
-226 -4 -213 135 -209 l92 3 0 70 0 70 -32 3 -33 3 0 148 c0 135 -2 151 -21
175 l-20 26 20 26 c19 24 21 40 21 170 l0 143 33 3 32 3 0 70 0 70 -30 1 c-16
0 -61 -1 -100 -3z"/>

<path fill="#565656" d="M7473 1154 c-2 -6 -3 -38 -1 -70 3 -59 3 -59 36 -62 l32 -3 0 -137
c0 -119 3 -141 20 -169 20 -33 20 -33 0 -65 -17 -29 -20 -51 -20 -175 l0 -142
-32 -3 -33 -3 0 -70 0 -70 97 -3 c141 -4 138 -9 138 212 0 96 3 182 6 191 4 9
17 21 30 26 21 8 24 15 24 67 0 53 -3 60 -30 80 l-30 23 0 172 c0 123 -4 178
-12 189 -16 20 -217 31 -225 12z"/>

<path fill="#246DA2" d="M645 1138 c-3 -7 -4 -215 -3 -463 l3 -450 90 0 90 0 0 195 c0 215 5
237 65 280 71 50 146 45 178 -13 14 -27 17 -64 19 -247 l2 -215 88 0 88 0 0
250 0 250 -27 55 c-33 67 -71 97 -138 110 -89 17 -181 -12 -240 -75 l-25 -27
-5 179 -5 178 -88 3 c-64 2 -89 -1 -92 -10z"/>

<path fill="#C8D400" d="M2499 1111 c-150 -48 -271 -193 -301 -361 -32 -184 85 -406 259 -492
165 -81 408 -24 514 120 31 43 31 44 13 61 -10 10 -45 33 -76 50 l-57 32 -15
-28 c-75 -145 -315 -142 -403 6 -135 226 18 510 249 462 69 -15 114 -42 139
-86 12 -19 26 -35 31 -35 22 0 138 91 132 103 -89 153 -301 227 -485 168z"/>

<path fill="#246DA2" d="M1467 1094 c-4 -4 -7 -51 -7 -105 l0 -98 -42 -3 -43 -3 0 -70 0 -70
43 -3 42 -3 0 -197 c0 -185 1 -201 23 -242 26 -53 89 -90 152 -90 45 0 171 32
187 48 7 7 4 30 -9 74 -16 52 -23 62 -39 60 -73 -11 -101 -12 -114 -3 -12 8
-16 43 -18 180 l-3 170 68 3 68 3 0 70 0 70 -67 3 -67 3 -3 102 -3 102 -80 3
c-45 1 -84 0 -88 -4z"/>

<path fill="#C8D400" d="M7017 1094 c-4 -4 -7 -51 -7 -105 l0 -98 -37 -3 -38 -3 0 -70 0 -70
36 -3 36 -3 7 -67 c3 -37 6 -130 6 -208 0 -130 2 -144 23 -175 27 -41 98 -79
147 -79 36 0 120 19 172 39 l26 10 -15 58 c-19 74 -28 85 -59 72 -35 -13 -88
-11 -102 3 -8 8 -12 63 -12 180 l0 167 68 3 67 3 0 70 0 70 -67 3 -67 3 -3
102 -3 102 -85 3 c-47 1 -89 0 -93 -4z"/>

<path fill="#C8D400" d="M3349 890 c-63 -11 -123 -43 -174 -95 -55 -54 -82 -106 -94 -181 -25
-161 50 -304 198 -372 77 -36 211 -38 285 -4 75 34 129 84 167 154 32 59 34
69 34 158 0 82 -4 103 -26 151 -46 98 -138 168 -249 189 -59 11 -75 11 -141 0z
m168 -178 c44 -31 67 -86 67 -157 0 -113 -53 -176 -153 -183 -70 -5 -115 22
-148 88 -53 103 -11 233 87 273 31 13 117 1 147 -21z"/>

<path fill="#C8D400" d="M4254 890 c-61 -13 -106 -34 -147 -69 l-36 -32 -3 48 -3 48 -80 0
-80 0 0 -330 0 -330 85 0 85 0 5 202 c5 184 7 204 26 229 45 60 111 88 171 72
54 -14 58 -31 63 -278 l5 -225 85 0 85 0 0 266 0 266 -30 48 c-46 74 -132 106
-231 85z"/>

<path fill="#C8D400" d="M5040 890 c-63 -11 -89 -23 -142 -63 l-47 -36 -3 47 -3 47 -80 0 -80
0 0 -330 0 -330 90 0 90 0 1 196 c1 158 4 201 18 226 37 73 151 111 205 69 28
-22 35 -68 40 -276 l6 -215 85 0 85 0 0 245 c-1 264 -7 307 -51 360 -47 55
-122 76 -214 60z"/>

<path fill="#C8D400" d="M5709 890 c-99 -17 -200 -94 -250 -190 -21 -39 -24 -59 -24 -145 0
-90 3 -105 28 -153 79 -149 241 -220 407 -178 79 21 145 61 188 118 39 51 34
58 -54 77 -56 13 -56 13 -88 -16 -17 -16 -44 -35 -59 -41 -42 -18 -117 -15
-157 7 -33 17 -79 81 -80 108 0 10 60 13 253 15 l252 3 -1 70 c-2 211 -197
364 -415 325z m151 -150 c36 -19 80 -79 80 -110 0 -6 -56 -10 -160 -10 -149 0
-160 1 -160 19 0 29 43 85 80 103 46 24 112 23 160 -2z"/>

<path fill="#C8D400" d="M6483 890 c-186 -39 -303 -204 -273 -386 19 -114 95 -214 200 -263
46 -22 69 -26 145 -26 76 0 99 4 145 26 65 30 125 80 146 120 17 33 15 35 -84
64 l-62 18 -28 -25 c-40 -38 -65 -48 -120 -48 -91 0 -162 80 -162 182 0 84 36
148 99 174 65 27 133 15 176 -32 l25 -27 80 23 c44 13 83 26 85 30 6 10 -42
71 -82 104 -68 58 -194 86 -290 66z"/>

<path fill="#36A9E1" d="M1934 407 c-2 -7 -4 -52 -2 -98 l3 -84 70 0 70 0 0 95 0 95 -68 3
c-50 2 -69 -1 -73 -11z"/>

</g>
</svg>
