<!-- highstreet technologies GmbH colour scheme 
	Grey	#565656
	LBlue #36A9E1
	DBlue #246DA2
	Green #003F2C / #006C4B
	Yellw #C8D400
	Red 	#D81036
-->

<svg xmlns="http://www.w3.org/2000/svg" viewBox="0 0 265 265">

<g transform="translate(0.000000,265.000000) scale(0.100000,-0.100000)">

<path fill="#565656" d="M601 2515 c-35 -8 -66 -17 -69 -20 -3 -3 76 -87 175 -188 243 -244
243 -246 59 -425 -106 -103 -137 -120 -194 -107 -19 4 -88 66 -207 185 -99 99
-183 180 -186 180 -17 0 -34 -104 -33 -200 0 -82 6 -120 23 -170 61 -174 191
-306 362 -367 62 -22 93 -27 187 -28 l113 -2 602 -600 c673 -671 633 -638 777
-638 93 1 151 27 225 101 99 98 129 219 85 339 -21 57 -49 87 -626 665 l-603
605 5 70 c18 217 -117 451 -316 549 -127 62 -250 78 -379 51z m1696 -1906 c70
-34 113 -125 93 -199 -31 -116 -158 -168 -262 -107 -77 45 -107 133 -73 214
21 50 42 72 90 94 53 24 99 24 152 -2z"/>

<path fill="#565656" d="M2183 2496 c-23 -7 -56 -23 -75 -34 -18 -12 -172 -161 -343 -331
l-310 -311 45 -45 c24 -25 49 -45 55 -45 5 0 152 142 325 315 264 264 319 315
340 313 19 -2 26 -10 28 -32 3 -26 -26 -59 -315 -348 l-318 -318 38 -37 37
-38 319 318 c287 287 321 318 347 315 24 -2 30 -8 32 -32 3 -26 -26 -59 -315
-348 l-318 -318 48 -47 47 -48 320 320 c225 225 327 333 342 365 31 66 30 159
-4 225 -66 127 -210 198 -325 161z"/>

<path fill="#36A9E1" d="M800 875 l-175 -175 -85 0 -85 0 -135 -222 c-74 -121 -137 -225 -139
-231 -4 -11 89 -107 104 -107 5 0 109 60 230 134 l220 133 3 84 3 84 177 178
177 177 -60 60 -60 60 -175 -175z"/>

</g>
</svg>
