<!-- highstreet technologies GmbH colour scheme 
	Grey	#565656
	LBlue #36A9E1
	DBlue #246DA2
	Green #003F2C / #006C4B
	Yellw #C8D400
	Red 	#D81036
-->

<svg xmlns="http://www.w3.org/2000/svg" viewBox="-224 -202 882 882">

<path fill="#565656" d="M 576 544 H -64 V -160 C -64 -177.673 -49.673 -192 -32 -192 H 544 C 561.673 -192 576 -177.673 576 -160 V 544 Z "/>

<path fill="#ffffff" d="M 480 0 H 32 C 14.327 0 0 -14.327 0 -32 V -96 C 0 -113.673 14.327 -128 32 -128 H 480 C 497.673 -128 512 -113.673 512 -96 V -32 C 512 -14.327 497.673 0 480 0 Z M 432 -88 C 418.745 -88 408 -77.255 408 -64 S 418.745 -40 432 -40 S 456 -50.745 456 -64 S 445.255 -88 432 -88 Z M 368 -88 C 354.745 -88 344 -77.255 344 -64 S 354.745 -40 368 -40 S 392 -50.745 392 -64 S 381.255 -88 368 -88 Z "/>

<path fill="#ffffff" d="M 480 160 H 32 C 14.327 160 0 145.673 0 128 V 64 C 0 46.327 14.327 32 32 32 H 480 C 497.673 32 512 46.327 512 64 V 128 C 512 145.673 497.673 160 480 160 Z M 432 72 C 418.745 72 408 82.745 408 96 S 418.745 120 432 120 S 456 109.255 456 96 S 445.255 72 432 72 Z M 368 72 C 354.745 72 344 82.745 344 96 S 354.745 120 368 120 S 392 109.255 392 96 S 381.255 72 368 72 Z "/>

<path fill="#ffffff" d="M 480 320 H 32 C 14.327 320 0 305.673 0 288 V 224 C 0 206.327 14.327 192 32 192 H 480 C 497.673 192 512 206.327 512 224 V 288 C 512 305.673 497.673 320 480 320 Z M 432 232 C 418.745 232 408 242.745 408 256 S 418.745 280 432 280 S 456 269.255 456 256 S 445.255 232 432 232 Z M 368 232 C 354.745 232 344 242.745 344 256 S 354.745 280 368 280 S 392 269.255 392 256 S 381.255 232 368 232 Z "/>

<path fill="#ffffff" d="M 480 480 H 32 C 14.327 480 0 465.673 0 448 V 384 C 0 366.327 14.327 352 32 352 H 480 C 497.673 352 512 366.327 512 384 V 448 C 512 465.673 497.673 480 480 480 Z M 432 392 C 418.745 392 408 402.745 408 416 S 418.745 440 432 440 S 456 429.255 456 416 S 445.255 392 432 392 Z M 368 392 C 354.745 392 344 402.745 344 416 S 354.745 440 368 440 S 392 429.255 392 416 S 381.255 392 368 392 Z"/>

<path fill="#C8D400" d="M 480 670 H -96 C -155 670 -190 631 -192 574 H 576 C 575 622 543 670 480 670 Z"/>
</svg>
