<!-- highstreet technologies GmbH colour scheme 
	Grey	#565656
	LBlue #36A9E1
	DBlue #246DA2
	Green #003F2C / #006C4B
	Yellw #C8D400
	Red 	#D81036
-->

<svg version="1.0" xmlns="http://www.w3.org/2000/svg" viewBox="0 0 650 650">

<g transform="translate(20,0) scale(1,1)">

<path fill="#C8D400" d="M 121.5 10 c -11.5 4.1 -19.6 12.1 -23.6 23.5 c -1.8 5 -1.9 9.2 -1.9 73.9 l 0 48.5 l 37.5 0 l 37.5 0 l 0 -45.9 c 0 -40.3 -0.4 -67.9 -1 -71.2 c -2.3 -11.9 -10.6 -22.5 -21.6 -27.6 c -7.9 -3.6 -18.8 -4.1 -26.9 -1.2 z"/>

<path fill="#C8D400" d="M 347.9 10 c -11.5 4.1 -19.6 12.1 -23.6 23.5 c -1.8 5 -1.9 9.2 -1.9 73.9 l 0 48.5 l 37.5 0 l 37.5 0 l 0 -45.9 c 0 -40.3 -0.4 -67.9 -1 -71.2 c -2.3 -11.9 -10.6 -22.5 -21.6 -27.6 c -7.9 -3.6 -18.8 -4.1 -26.9 -1.2 z"/>

<path fill="#565656" d="m 32.5 190 c -4.9 2.2 -9.1 6.9 -10.5 11.9 c -0.7 2.4 -1 11.9 -0.8 26.3 l 0.3 22.6 l 2.9 4.1 c 4.5 6.5 9.1 8.2 22.4 8.2 l 11.2 0 l 0 17.7 c 0 35.3 3.1 59 10.5 80.3 c 21.5 61.6 70.5 105.9 135.3 122 l 4.2 1.1 l 0 57.9 c 1 27.9 4 72.9 75 75 c 177 -5.1 344 -100.1 345 -204.1 l 1 -75 c -49 124 -165 214 -337 217.1 c -5 -0.1 -7 -3.1 -7 -7.1 l 0 -63.8 l 4.2 -1.1 c 17.1 -4.4 26.1 -7.6 39.6 -14 c 51.7 -24.6 90.3 -74.2 101.7 -130.5 c 3 -14.6 4.5 -33.9 4.5 -57.7 l 0 -17.6 l 12.3 -0.4 c 11.1 -0.3 12.7 -0.5 15.9 -2.7 c 1.9 -1.3 4.6 -4 5.9 -5.9 c 2.3 -3.5 2.4 -4.2 2.7 -26.1 c 0.2 -14.4 -0.1 -23.9 -0.8 -26.3 c -1.4 -5 -5.6 -9.7 -10.5 -11.9 c -3.8 -1.8 -12.4 -1.9 -213 -1.9 c -200.6 0 -209.2 0.1 -213 1.9 z"/>


</g>
</svg>
