<!-- highstreet technologies GmbH colour scheme 
	Grey	#565656
	LBlue #36A9E1
	DBlue #246DA2
	Green #003F2C / #006C4B
	Yellw #C8D400
	Red 	#D81036
-->

<svg viewBox="0 0 500 540" xmlns="http://www.w3.org/2000/svg" xmlns:xlink="http://www.w3.org/1999/xlink" >
    <g transform="matrix(27.7762,0,0,27.7762,-13.8603,-27.7762)">

 <path fill="#565656" d="M 16.8 15.101 C 15.656 14.242 15 12.929 15 11.5 L 15 8.5 C 15 5.987 13.306 3.862 11 3.208 L 11 2.5 C 11 1.673 10.327 1 9.5 1 C 8.673 1 8 1.673 8 2.5 L 8 3.208 C 5.694 3.863 4 5.987 4 8.5 L 4 11.5 C 4 12.929 3.344 14.241 2.2 15.101 C 2.028 15.23 1.958 15.455 2.026 15.659 C 2.094 15.863 2.285 16.001 2.5 16.001 L 16.499 16.001 C 16.714 16.001 16.905 15.863 16.973 15.659 C 17.041 15.455 16.971 15.23 16.799 15.101 L 16.8 15.101 Z" />

 <path fill="#D81036" d="m 7.05 17.001 c -0.033 0.164 -0.051 0.331 -0.051 0.5 c 0 1.378 1.122 2.5 2.5 2.5 c 1.378 0 2.5 -1.122 2.5 -2.5 c 0 -0.168 -0.017 -0.336 -0.05 -0.5 l -4.899 0 z" />


    </g>
</svg>
