<!-- highstreet technologies GmbH colour scheme 
	Grey	#565656
	LBlue #36A9E1
	DBlue #246DA2
	Green #003F2C / #006C4B
	Yellw #C8D400
	Red 	#D81036
-->

<svg version="1.0" xmlns="http://www.w3.org/2000/svg" viewBox="310 250 400 400">

<g transform="translate(0,1024) scale(0.1,-0.1)">

<path fill="#565656" d="M4926 7634 c-126 -17 -209 -38 -318 -79 -79 -31 -195 -89 -208 -104
-10 -12 -69 -51 -77 -51 -4 0 -42 -28 -83 -63 -227 -190 -375 -475 -375 -722
0 -81 3 -95 30 -143 111 -201 365 -252 514 -103 46 46 88 124 121 226 28 87
109 255 153 315 67 95 172 168 275 192 86 20 268 21 346 2 113 -28 152 -50
240 -137 64 -63 88 -95 104 -137 49 -125 52 -225 12 -332 -38 -102 -132 -209
-360 -409 -153 -134 -329 -309 -375 -374 -97 -136 -148 -274 -166 -448 -19
-192 12 -305 104 -379 64 -50 141 -72 228 -65 82 7 125 24 177 71 49 45 73
100 105 241 59 258 63 263 528 687 218 198 295 284 374 419 134 230 138 543 9
803 -101 202 -252 349 -474 461 -246 124 -573 172 -884 129z"/>

<path fill="#36A9E1" d="M 5098 4587 C 4582 4587 4582 3845 5098 3845 C 5614 3847 5614 4585 5098 4587 Z"/>

</g>
</svg>
