<!-- highstreet technologies GmbH colour scheme 
	Grey	#565656
	LBlue #36A9E1
	DBlue #246DA2
	Green #003F2C / #006C4B
	Yellw #C8D400
	Red 	#D81036
-->

<svg xmlns="http://www.w3.org/2000/svg" viewBox="0 0 980 980">

<g transform="translate(0.000000,890.000000) scale(0.100000,-0.100000)">

<path fill="#36A9E1" d="M4704 7791 c-314 -180 -1992 -1183 -1993 -1191 -2 -12 2183 -1311
2198 -1307 20 5 1595 947 1856 1109 198 123 295 193 295 210 0 7 -22 26 -48
42 -352 217 -2060 1224 -2103 1241 -9 3 -94 -40 -205 -104z"/>

<path fill="#36A9E1" d="M2530 5147 l0 -1144 1098 -731 1097 -732 3 1217 c2 966 -1 1220 -10
1229 -19 17 -2169 1304 -2179 1304 -5 0 -9 -475 -9 -1143z"/>

<path fill="#36A9E1" d="M6163 5638 l-1093 -653 0 -1232 c0 -678 2 -1233 4 -1233 8 0 2161
1293 2179 1308 16 14 17 62 16 761 -1 410 -5 961 -8 1224 l-6 477 -1092 -652z"/>

<path fill="#565656" d="M7598 4488 c-3 -626 -6 -800 -17 -825 -16 -39 -136 -122 -486 -337
-132 -81 -249 -154 -260 -162 -20 -15 -19 -16 20 -50 44 -39 414 -264 517
-315 l66 -32 109 63 c107 62 414 243 838 493 383 226 1199 715 1219 730 19 14
16 17 -50 59 -97 62 -1941 1168 -1948 1168 -3 0 -6 -357 -8 -792z"/>

<path fill="#565656" d="M1280 4736 c-1071 -644 -1095 -659 -1093 -671 0 -5 492 -303 1092
-661 l1091 -653 400 197 c219 108 399 199 399 202 0 3 -102 73 -226 155 -333
220 -653 442 -691 479 -24 24 -35 45 -42 86 -6 30 -13 358 -16 728 -5 477 -10
672 -18 671 -6 0 -409 -240 -896 -533z"/>

<path fill="#565656" d="M0 2612 l0 -1149 872 -578 c1051 -697 1292 -855 1307 -855 8 0 11
333 11 1213 l0 1212 -1063 637 c-584 350 -1077 643 -1094 652 l-33 17 0 -1149z"/>

<path fill="#565656" d="M9380 3514 c-217 -129 -704 -420 -1082 -647 l-688 -412 0 -1228 0
-1228 28 15 c56 29 810 476 1692 1003 l465 278 3 1228 c2 978 0 1227 -10 1227
-7 0 -191 -106 -408 -236z"/>

<path fill="#565656" d="M3019 2685 l-484 -243 2 -1124 c2 -1073 6 -1308 22 -1308 11 0 1943
1147 2134 1267 l37 23 0 413 0 412 -378 250 c-331 219 -807 530 -838 548 -6 3
-229 -103 -495 -238z"/>

<path fill="#565656" d="M6249 2821 c-101 -60 -407 -244 -679 -408 l-495 -299 0 -409 0 -410
440 -263 c1265 -755 1717 -1022 1733 -1022 9 0 12 292 12 1218 0 669 -4 1222
-8 1228 -13 19 -788 474 -808 474 -6 0 -93 -49 -195 -109z"/>
</g>
</svg>
